<?xml version="1.0" standalone="no"?>
<!DOCTYPE svg PUBLIC "-//W3C//DTD SVG 20010904//EN"
 "http://www.w3.org/TR/2001/REC-SVG-20010904/DTD/svg10.dtd">
<svg version="1.0" xmlns="http://www.w3.org/2000/svg"
 width="128.215803pt" height="168.471348pt" viewBox="0 0 128.215803 168.471348"
 preserveAspectRatio="xMidYMid meet">
<metadata>
Created by potrace 1.12, written by Peter Selinger 2001-2015
</metadata>
<g transform="translate(-82.624183,181.565548) scale(0.100000,-0.100000)"
fill="#000000" stroke="none">
<path d="M1275 1806 c-61 -19 -116 -50 -176 -99 -30 -25 -71 -54 -90 -66 -18
-11 -29 -21 -23 -21 7 0 32 15 58 33 25 17 73 52 107 76 102 72 136 80 346 76
212 -3 221 -6 289 -102 38 -55 43 -58 90 -63 118 -12 195 -112 218 -285 6 -40
2 -67 -20 -135 -30 -95 -31 -127 -9 -202 26 -88 16 -128 -51 -207 -28 -33 -42
-41 -69 -41 l-33 0 -8 -133 -7 -132 -104 -95 c-57 -52 -145 -134 -196 -181
l-93 -86 -79 2 c-96 3 -79 -16 -232 253 -62 108 -117 204 -123 212 -25 36 49
-106 120 -230 124 -217 132 -229 164 -240 32 -11 132 -12 158 -2 9 4 76 64
150 133 73 69 158 147 188 174 51 45 55 52 61 104 4 31 7 91 8 134 l1 77 33 0
c38 0 58 18 106 94 35 57 39 97 16 172 -21 68 -19 96 11 183 22 63 25 87 20
140 -16 179 -97 286 -228 305 -42 6 -52 13 -77 50 -36 52 -95 106 -119 107
-116 8 -374 5 -407 -5z"/>
<path d="M1315 1736 c-77 -24 -189 -91 -180 -106 7 -11 -151 -33 -190 -27 -21
4 -33 2 -30 -4 4 -5 27 -9 51 -9 l46 0 -33 -27 c-44 -38 -91 -114 -124 -203
-23 -60 -28 -92 -29 -165 -1 -104 13 -223 26 -231 9 -6 8 8 -14 134 -35 204
90 471 236 502 86 18 207 52 203 57 -3 2 -30 -3 -62 -12 -31 -9 -59 -15 -61
-12 -6 6 82 62 129 82 60 25 152 30 237 12 111 -23 200 -32 200 -19 0 5 -8 8
-18 5 -10 -2 -67 5 -126 16 -120 24 -202 26 -261 7z"/>
<path d="M1755 1659 c-16 -5 -80 -9 -140 -9 -94 0 -122 -4 -185 -25 -41 -14
-130 -39 -197 -55 -68 -16 -138 -36 -157 -44 -84 -35 -157 -156 -155 -254 2
-46 2 -46 10 14 13 102 65 186 140 224 20 11 93 33 161 49 69 16 162 42 207
56 67 22 97 26 169 24 92 -3 168 7 178 22 3 5 4 9 2 8 -2 0 -16 -5 -33 -10z"/>
<path d="M1770 1610 c-15 -12 -54 -24 -95 -29 -83 -12 -146 -33 -320 -107
-131 -55 -223 -113 -260 -163 -11 -15 4 -5 35 22 91 80 403 217 536 235 72 10
134 34 134 52 0 13 0 13 -30 -10z"/>
<path d="M1807 1538 c-16 -33 -57 -88 -95 -127 -60 -62 -83 -76 -214 -140
-169 -82 -242 -141 -282 -224 -29 -63 -40 -107 -26 -107 5 0 10 10 10 23 1 29
32 98 65 141 36 48 115 99 230 151 122 55 159 81 239 165 58 62 112 149 104
168 -1 4 -16 -18 -31 -50z"/>
<path d="M1930 1567 c0 -5 18 -34 40 -65 48 -70 70 -129 70 -194 0 -34 4 -47
11 -42 19 11 1 114 -31 179 -28 57 -89 139 -90 122z"/>
<path d="M1653 1492 c-34 -26 -97 -76 -140 -111 -68 -56 -220 -141 -252 -141
-6 0 -11 -4 -11 -10 0 -5 26 2 58 16 31 14 64 28 72 32 36 13 121 74 196 139
45 38 98 80 118 92 20 13 36 25 36 27 0 11 -20 0 -77 -44z"/>
<path d="M1927 1510 c10 -48 10 -139 0 -175 -7 -24 -6 -27 4 -18 20 20 24 152
5 193 l-16 35 7 -35z"/>
<path d="M1394 1399 c-21 -23 -66 -61 -100 -85 -135 -97 -202 -201 -211 -328
-3 -39 -1 -86 4 -105 7 -27 9 -12 8 65 0 83 4 107 23 149 39 85 72 124 176
204 103 80 153 127 145 136 -3 2 -23 -14 -45 -36z"/>
<path d="M1835 1399 c-26 -55 -101 -121 -187 -164 -39 -19 -64 -35 -55 -35 24
0 126 57 176 99 43 36 113 141 94 141 -4 0 -17 -19 -28 -41z"/>
<path d="M1012 1294 c-90 -92 -123 -169 -130 -303 -3 -71 0 -107 13 -152 10
-33 20 -57 22 -55 3 2 -3 28 -11 57 -22 73 -20 183 4 261 25 81 85 174 136
212 21 16 41 31 43 33 2 2 1 6 -3 10 -3 4 -37 -24 -74 -63z"/>
<path d="M1890 1292 c0 -33 -3 -69 -6 -79 -4 -15 -4 -15 4 -3 12 18 19 127 9
137 -4 3 -7 -21 -7 -55z"/>
<path d="M1984 1217 c0 -102 -20 -187 -65 -279 -15 -32 -24 -58 -20 -58 12 0
57 104 76 175 19 68 32 255 19 255 -5 0 -9 -42 -10 -93z"/>
<path d="M1796 1230 c-42 -64 -96 -120 -135 -139 -20 -10 -69 -23 -108 -30
-69 -11 -192 -56 -181 -66 3 -3 29 6 59 19 30 14 84 30 121 36 82 13 113 24
155 56 34 26 129 151 121 160 -3 2 -17 -14 -32 -36z"/>
<path d="M1675 1195 c-27 -18 -113 -62 -190 -97 -108 -48 -150 -73 -185 -108
-65 -65 -86 -148 -55 -215 l14 -30 -7 30 c-10 45 -6 119 8 146 30 59 79 93
255 179 99 49 191 98 205 109 39 32 10 23 -45 -14z"/>
<path d="M1841 1170 c0 -19 4 -62 10 -95 6 -33 15 -98 19 -145 l8 -85 -4 100
c-4 105 -31 288 -33 225z"/>
<path d="M1031 1121 c-17 -32 -31 -65 -31 -72 0 -8 16 17 35 55 20 38 34 70
32 72 -2 3 -18 -22 -36 -55z"/>
<path d="M1370 1159 c-40 -24 -100 -79 -100 -91 0 -5 16 7 35 27 20 19 53 44
75 55 38 19 49 30 33 30 -5 0 -24 -10 -43 -21z"/>
<path d="M1902 1140 c0 -25 4 -58 8 -75 6 -25 8 -20 8 25 0 30 -3 64 -8 75 -6
15 -8 9 -8 -25z"/>
<path d="M1782 1150 c0 -14 6 -41 13 -60 18 -46 18 -28 1 35 -9 30 -14 40 -14
25z"/>
<path d="M2002 1053 c-11 -16 -29 -55 -41 -87 -12 -33 -37 -87 -55 -120 -36
-65 -72 -164 -63 -173 3 -3 11 14 17 38 7 23 33 86 60 138 26 53 53 113 60
134 6 21 23 51 37 67 14 17 20 30 15 30 -6 0 -19 -12 -30 -27z"/>
<path d="M930 1005 c-13 -65 1 -235 25 -292 20 -47 27 -41 10 8 -8 23 -15 51
-15 63 0 18 2 17 19 -9 10 -16 31 -41 47 -55 25 -22 24 -20 -5 14 -65 77 -92
175 -72 267 6 28 9 54 7 56 -2 3 -10 -21 -16 -52z"/>
<path d="M985 982 c-3 -26 -1 -69 5 -95 12 -58 38 -122 45 -115 3 3 -5 27 -17
54 -16 37 -21 69 -22 127 0 42 -1 77 -2 77 -1 0 -5 -21 -9 -48z"/>
<path d="M2035 990 c24 -47 19 -74 -21 -110 -20 -17 -34 -33 -31 -36 11 -11
77 64 77 88 0 33 -20 88 -31 88 -5 0 -3 -13 6 -30z"/>
<path d="M1136 929 c-3 -17 -6 -75 -7 -128 -1 -127 -12 -156 -29 -78 -7 31
-15 55 -17 53 -3 -2 0 -29 7 -60 6 -30 13 -68 15 -83 5 -42 6 -41 17 2 8 37
29 316 23 323 -1 1 -5 -12 -9 -29z"/>
<path d="M1377 883 c-3 -4 -8 -55 -11 -113 -4 -58 -10 -118 -13 -134 -3 -19
-2 -26 6 -22 6 4 11 33 11 64 1 31 5 91 10 132 8 72 7 90 -3 73z"/>
<path d="M1048 830 c4 -30 7 -84 7 -119 0 -60 -2 -65 -35 -93 -29 -24 -31 -27
-9 -18 47 21 63 63 56 149 -4 42 -11 90 -16 106 -8 23 -8 17 -3 -25z"/>
<path d="M1171 870 c-1 -8 3 -29 8 -45 5 -19 4 -48 -5 -80 -15 -61 -10 -73 7
-15 l13 42 29 -33 c30 -36 27 -24 -6 24 -11 16 -25 50 -32 75 -7 26 -14 40
-14 32z"/>
<path d="M1292 603 c2 -9 22 -30 45 -47 41 -29 42 -29 69 -11 15 10 37 18 48
19 32 2 28 41 -4 42 -22 1 -22 0 -2 -3 12 -2 22 -11 22 -20 0 -10 -6 -13 -16
-9 -9 3 -29 -3 -45 -15 -29 -20 -31 -20 -57 -3 -40 26 -54 43 -47 54 3 5 1 10
-5 10 -6 0 -10 -8 -8 -17z"/>
<path d="M1370 451 c-44 -6 -110 -38 -110 -54 0 -9 10 -4 51 24 37 26 123 26
179 1 65 -29 90 -35 90 -23 0 6 -11 11 -24 11 -12 0 -44 11 -70 25 -26 14 -52
24 -59 23 -7 0 -32 -4 -57 -7z"/>
<path d="M1296 392 c-12 -11 36 -72 56 -72 6 0 -1 9 -16 21 -14 11 -26 23 -26
27 0 4 45 7 100 7 l100 0 -25 -24 c-16 -16 -41 -27 -72 -32 -47 -6 -47 -6 -9
-8 42 -1 99 28 116 59 14 25 -4 30 -73 17 -39 -7 -71 -7 -102 0 -24 6 -47 8
-49 5z"/>
</g>
</svg>
