<?xml version="1.0" standalone="no"?>
<!DOCTYPE svg PUBLIC "-//W3C//DTD SVG 20010904//EN"
 "http://www.w3.org/TR/2001/REC-SVG-20010904/DTD/svg10.dtd">
<svg version="1.0" xmlns="http://www.w3.org/2000/svg"
 width="819.000000pt" height="1024.000000pt" viewBox="0 0 819.000000 1024.000000"
 preserveAspectRatio="xMidYMid meet">
<metadata>
Created by potrace 1.12, written by Peter Selinger 2001-2015
</metadata>
<g transform="translate(0.000000,1024.000000) scale(0.100000,-0.100000)"
fill="#000000" stroke="none">
<path d="M0 5120 l0 -5120 4095 0 4095 0 0 5120 0 5120 -4095 0 -4095 0 0
-5120z m3940 4203 c52 -3 102 -9 111 -13 8 -5 69 -16 135 -25 156 -22 496 -11
549 18 28 15 371 23 388 9 7 -6 44 -16 82 -23 39 -7 74 -16 79 -21 6 -4 18 -8
28 -8 10 0 18 -4 18 -10 0 -5 11 -10 25 -10 14 0 25 -3 25 -7 0 -5 25 -19 55
-33 30 -14 55 -28 55 -32 0 -5 7 -8 15 -8 8 0 20 -9 27 -20 7 -11 19 -20 27
-20 12 0 90 -68 125 -108 6 -8 23 -27 38 -44 15 -17 25 -35 22 -40 -3 -4 0 -7
7 -6 13 3 81 -80 104 -129 9 -18 22 -38 29 -46 8 -7 28 -42 46 -77 17 -34 40
-72 51 -83 10 -11 19 -27 19 -34 0 -7 4 -13 9 -13 5 0 12 -8 15 -18 10 -29 55
-40 221 -52 178 -13 351 -52 387 -88 7 -7 22 -12 34 -12 11 0 38 -11 58 -25
20 -14 41 -25 45 -25 5 0 19 -13 32 -30 13 -16 31 -30 39 -30 25 -1 51 -26 44
-44 -5 -12 0 -16 23 -16 31 0 53 -16 53 -38 0 -16 18 -36 43 -45 10 -4 17 -17
17 -32 0 -18 5 -25 20 -25 17 0 100 -96 100 -116 0 -4 9 -17 19 -28 25 -27
114 -198 134 -256 9 -25 23 -62 31 -82 9 -21 13 -49 10 -66 -4 -21 -1 -34 14
-48 27 -27 65 -175 57 -225 -4 -23 -3 -39 3 -39 5 0 12 -15 15 -32 3 -18 13
-67 23 -108 24 -106 24 -446 0 -580 -22 -124 -68 -266 -147 -462 -77 -188 -83
-215 -82 -353 1 -91 6 -147 18 -185 15 -50 25 -93 42 -173 3 -15 9 -30 14 -33
5 -3 9 -14 9 -26 0 -11 12 -53 26 -92 74 -204 73 -427 -3 -612 -15 -35 -30
-64 -35 -64 -4 0 -8 -5 -8 -11 0 -11 -172 -271 -194 -295 -6 -6 -37 -46 -70
-87 -65 -85 -101 -119 -163 -159 -60 -38 -104 -48 -225 -48 -96 0 -108 -2
-108 -17 0 -10 -5 -88 -10 -175 -6 -86 -17 -322 -26 -525 -23 -549 -24 -565
-40 -607 -8 -21 -26 -54 -39 -74 -21 -31 -25 -33 -25 -15 0 22 -1 22 -30 5
-16 -9 -30 -20 -30 -24 0 -5 -7 -8 -16 -8 -8 0 -12 -4 -9 -10 3 -6 2 -10 -3
-10 -5 0 -29 -19 -54 -42 -129 -120 -249 -233 -302 -282 -32 -31 -63 -53 -69
-49 -5 3 -7 2 -4 -4 3 -5 -44 -57 -106 -114 -61 -57 -127 -119 -145 -136 -19
-18 -40 -33 -48 -33 -8 0 -18 -10 -23 -23 -5 -12 -33 -43 -62 -67 -29 -25 -58
-51 -65 -57 -7 -7 -17 -13 -23 -13 -6 0 -11 -9 -11 -20 0 -11 -4 -20 -8 -20
-5 0 -37 -27 -71 -60 -35 -33 -66 -60 -70 -60 -3 0 -15 -11 -25 -25 -10 -13
-24 -22 -30 -18 -6 3 -8 3 -4 -2 11 -12 -140 -157 -154 -149 -7 4 -8 3 -4 -4
4 -6 -14 -30 -40 -54 -26 -24 -53 -49 -60 -56 -7 -6 -17 -12 -23 -12 -6 0 -11
-5 -11 -10 0 -12 -115 -130 -126 -130 -9 0 -44 -41 -44 -52 0 -4 -7 -8 -15 -8
-8 0 -15 -4 -15 -10 0 -5 -7 -10 -15 -10 -8 0 -14 -4 -13 -9 4 -14 -123 -131
-142 -131 -6 0 -10 -4 -10 -9 0 -5 -19 -18 -42 -28 -88 -40 -138 -45 -448 -40
-297 5 -387 11 -405 28 -5 5 -16 9 -25 9 -21 0 -70 23 -70 33 0 4 -6 7 -12 7
-15 0 -78 70 -78 87 0 6 -3 13 -7 15 -5 2 -26 32 -47 68 -22 36 -43 67 -46 70
-16 11 -56 96 -52 108 2 7 -1 11 -7 10 -6 -2 -21 15 -34 37 -12 22 -27 45 -34
52 -6 7 -17 26 -25 43 -7 16 -17 30 -23 30 -5 0 -3 5 5 10 13 9 13 10 0 10
-15 1 -100 142 -100 167 0 7 -5 13 -10 13 -6 0 -18 18 -27 40 -10 22 -21 40
-25 40 -5 0 -8 7 -8 15 0 9 -5 21 -10 28 -19 22 -60 88 -85 135 -14 26 -29 54
-34 62 -5 8 -15 29 -22 45 -8 17 -20 36 -26 43 -7 7 -13 22 -13 32 0 10 -6 20
-12 23 -7 2 -33 43 -57 91 -24 47 -48 86 -52 86 -5 0 -9 9 -9 20 0 11 -4 20
-10 20 -5 0 -10 9 -10 20 0 11 -3 20 -7 20 -5 0 -21 26 -37 58 -17 31 -38 68
-48 81 -10 13 -18 32 -18 42 0 9 -3 19 -8 21 -9 4 -57 81 -107 173 -21 39 -47
87 -58 108 -12 20 -24 37 -29 37 -4 0 -8 9 -8 20 0 11 -4 20 -10 20 -5 0 -10
9 -10 19 0 11 -4 21 -9 23 -16 5 -181 346 -181 373 0 18 5 25 20 25 12 0 20
-7 20 -16 0 -8 7 -22 15 -30 8 -9 15 -24 15 -35 0 -10 4 -19 8 -19 5 0 16 -17
25 -37 19 -47 69 -136 80 -144 4 -3 7 -10 6 -15 -4 -14 23 -64 34 -64 5 0 7
-11 5 -25 -3 -13 -2 -22 2 -20 4 2 16 -13 26 -35 10 -22 22 -40 27 -40 4 0 7
-7 7 -16 0 -9 9 -28 19 -43 11 -15 21 -34 23 -41 2 -8 13 -25 26 -37 12 -13
22 -33 22 -43 0 -11 4 -20 9 -20 5 0 14 -12 20 -28 13 -34 53 -105 64 -113 5
-3 8 -10 6 -14 -2 -7 17 -38 38 -60 6 -6 35 -58 63 -115 28 -57 58 -109 65
-117 8 -7 17 -22 20 -33 3 -11 11 -20 17 -20 5 0 7 -7 4 -16 -3 -8 -1 -20 4
-27 21 -25 60 -88 60 -97 0 -6 5 -10 10 -10 6 0 10 -7 10 -15 0 -8 5 -15 11
-15 5 0 7 -4 4 -10 -3 -5 -2 -10 3 -10 4 0 21 -27 37 -60 16 -33 32 -60 37
-60 4 0 8 -9 8 -19 0 -11 6 -26 14 -34 8 -7 29 -42 46 -78 18 -35 35 -66 39
-69 13 -10 43 -62 32 -56 -6 4 -11 2 -11 -3 0 -6 7 -11 15 -11 14 0 20 -12 16
-33 -1 -4 10 -20 24 -35 14 -15 25 -35 25 -44 0 -10 4 -18 8 -18 5 0 17 -18
27 -39 10 -22 24 -42 31 -45 8 -3 14 -12 14 -21 0 -8 4 -15 8 -15 13 0 33 -50
26 -63 -4 -7 -4 -9 1 -5 8 8 27 -8 38 -32 13 -27 67 -110 77 -120 3 -3 11 -15
17 -27 29 -52 40 -67 72 -99 18 -19 37 -34 42 -34 5 0 9 -4 9 -10 0 -5 6 -10
14 -10 8 0 16 -5 18 -11 2 -5 27 -10 56 -11 28 0 55 -4 58 -9 3 -5 148 -9 333
-9 318 0 329 1 384 23 57 23 76 38 161 127 29 31 54 49 63 46 8 -3 11 -1 8 4
-7 12 156 180 174 180 6 0 11 4 11 8 0 11 35 52 43 52 4 0 65 59 136 130 72
72 137 130 145 130 9 0 15 5 14 12 -2 6 8 17 22 25 14 7 22 13 18 13 -14 0 57
70 71 70 8 0 11 3 8 6 -4 4 3 15 16 25 64 54 105 91 170 154 40 39 126 120
191 180 122 112 257 238 309 287 16 16 30 28 32 28 2 0 23 19 48 43 93 89 220
202 235 211 22 12 52 46 52 59 0 5 6 7 14 4 36 -14 44 22 55 258 6 127 13 273
16 325 3 52 7 165 10 250 3 85 8 175 10 200 2 25 7 95 10 155 9 142 19 183 48
190 12 3 74 7 137 9 122 4 180 13 180 27 0 5 6 9 14 9 14 0 82 70 130 135 17
22 35 43 42 47 6 4 27 31 45 60 18 29 36 55 39 58 4 3 9 13 13 23 3 9 13 17
22 17 8 0 15 7 15 16 0 13 69 123 90 144 12 12 69 137 75 165 16 69 22 195 15
275 -7 75 -67 310 -89 350 -7 13 -22 67 -26 90 0 3 -4 12 -10 20 -9 15 -17 51
-36 175 -17 113 -4 272 32 360 4 11 15 45 25 75 21 68 83 232 94 245 4 6 7 17
8 25 0 8 9 45 20 81 11 36 25 99 33 140 7 41 17 77 23 81 6 4 12 20 12 35 1
15 5 85 9 156 6 91 5 127 -3 127 -7 0 -11 26 -10 74 0 41 -3 80 -7 87 -9 14
-20 64 -35 149 -5 30 -13 73 -19 95 -6 22 -13 54 -16 70 -4 17 -10 39 -15 50
-4 11 -16 47 -25 80 -24 80 -54 164 -71 198 -8 16 -14 38 -14 49 0 11 -11 29
-24 39 -17 13 -22 25 -19 44 4 20 1 25 -14 25 -12 0 -30 19 -52 55 -18 30 -39
59 -46 65 -8 6 -11 18 -8 26 3 8 -1 14 -9 14 -14 0 -98 95 -98 111 0 5 -6 9
-13 9 -7 0 -37 23 -65 50 -29 28 -52 47 -52 43 0 -3 -10 3 -22 14 -13 11 -39
29 -58 38 -19 10 -37 21 -40 24 -9 10 -94 51 -108 51 -7 0 -23 6 -35 14 -39
25 -200 51 -388 62 -100 5 -108 8 -135 34 -47 46 -68 73 -88 113 -11 20 -23
37 -28 37 -4 0 -8 9 -8 19 0 10 -7 21 -15 25 -8 3 -15 14 -15 25 0 11 -6 24
-14 28 -8 4 -26 31 -40 58 -14 28 -39 65 -55 83 -17 18 -31 37 -31 42 0 16
-194 200 -211 200 -5 0 -14 9 -21 20 -7 11 -20 20 -29 20 -9 0 -27 8 -40 18
-123 92 -356 137 -579 113 -417 -45 -503 -46 -755 -11 -216 30 -419 44 -455
31 -14 -5 -66 -12 -116 -14 -84 -5 -361 -68 -374 -86 -3 -4 -21 -12 -40 -18
-103 -34 -245 -98 -280 -127 -8 -7 -40 -25 -70 -41 -70 -35 -150 -87 -150 -97
0 -5 -5 -8 -10 -8 -10 0 -67 -36 -80 -50 -3 -3 -21 -17 -40 -30 -38 -26 -80
-61 -117 -97 -13 -13 -26 -23 -28 -23 -5 0 -22 -13 -79 -61 -17 -14 -38 -24
-46 -22 -11 3 -12 2 -2 -4 9 -7 4 -16 -20 -35 -18 -15 -44 -36 -58 -47 -14
-11 -29 -24 -35 -29 -17 -14 -117 -78 -187 -120 -72 -43 -173 -82 -213 -82
-18 0 -25 5 -25 19 0 13 14 24 48 36 153 57 332 173 474 308 16 15 34 24 40
21 7 -4 8 -2 4 4 -4 7 -1 12 9 12 9 0 13 5 10 10 -3 6 -2 10 3 10 9 0 22 10
92 70 48 41 113 92 140 110 12 8 31 23 43 33 12 10 48 34 79 53 32 20 58 40
58 45 0 5 9 9 20 9 11 0 20 4 20 8 0 5 39 27 88 51 48 23 95 46 105 52 9 5 26
14 37 19 11 6 29 15 40 20 11 6 25 10 30 10 6 0 30 9 52 20 23 11 52 20 64 20
12 0 24 3 26 8 5 12 139 51 195 56 29 3 65 12 82 20 16 9 52 16 78 17 26 0 66
4 88 9 37 8 113 7 355 -7z m240 -374 c100 -11 423 -68 615 -110 50 -10 133
-26 185 -34 52 -8 122 -20 155 -26 103 -19 265 -17 304 3 37 20 61 11 61 -22
0 -56 -208 -61 -500 -12 -102 17 -198 33 -215 35 -16 3 -57 12 -90 21 -33 8
-78 15 -101 16 -22 0 -44 4 -50 8 -5 5 -43 15 -84 22 -41 7 -91 16 -110 20
-19 5 -60 11 -90 15 -30 4 -68 9 -85 12 -53 10 -446 4 -525 -7 -114 -17 -295
-64 -367 -96 -17 -8 -34 -14 -39 -14 -28 0 -324 -151 -370 -189 -6 -5 -26 -17
-44 -26 -18 -9 -42 -25 -53 -35 -10 -10 -47 -35 -81 -56 -33 -21 -62 -41 -64
-46 -2 -4 -8 -8 -13 -8 -6 0 -36 -19 -69 -41 -42 -30 -64 -40 -77 -34 -12 5
-14 9 -5 12 6 3 12 12 12 21 1 17 78 82 97 82 5 0 18 8 29 18 65 58 310 212
414 259 124 57 133 61 175 78 22 9 87 32 145 51 58 19 113 39 122 44 10 6 35
10 56 10 21 0 42 4 48 10 5 5 41 10 81 11 39 1 77 6 85 10 19 13 325 11 448
-2z m1646 -436 c-3 -25 -11 -31 -67 -50 -35 -12 -74 -22 -86 -22 -13 -1 -23
-5 -23 -11 0 -5 -16 -10 -35 -10 -19 0 -74 -10 -122 -22 -81 -20 -109 -22
-337 -20 -167 1 -252 5 -256 13 -10 15 -413 18 -465 2 -22 -6 -58 -16 -80 -21
-124 -32 -546 -170 -555 -182 -3 -4 -13 -7 -23 -7 -9 0 -47 -9 -85 -21 -133
-41 -279 -81 -367 -102 -49 -11 -106 -25 -125 -30 -19 -5 -78 -18 -130 -30
-52 -12 -131 -29 -175 -39 -44 -10 -125 -29 -180 -41 -55 -12 -110 -26 -123
-31 -13 -5 -38 -9 -55 -9 -18 0 -37 -4 -42 -8 -6 -5 -30 -14 -55 -21 -25 -7
-53 -17 -62 -22 -10 -5 -26 -9 -37 -9 -20 0 -237 -108 -306 -152 -34 -21 -137
-108 -183 -155 -7 -7 -18 -13 -23 -13 -5 0 -9 -6 -9 -13 0 -7 -8 -20 -18 -28
-54 -49 -134 -173 -202 -314 -24 -49 -47 -98 -52 -107 -4 -10 -8 -27 -8 -38 0
-11 -4 -20 -10 -20 -5 0 -10 -6 -10 -13 0 -7 -12 -48 -26 -91 -38 -118 -54
-223 -61 -401 -4 -124 -9 -163 -20 -172 -19 -15 -39 -7 -41 15 -9 118 16 418
38 462 4 9 11 31 14 50 7 32 26 94 46 145 45 118 75 192 82 201 4 6 22 38 38
70 16 33 38 69 49 80 10 12 26 34 34 50 8 16 26 40 38 55 13 14 40 46 59 72
19 25 41 47 49 47 7 0 11 6 7 15 -3 8 -1 15 5 15 6 0 22 14 36 30 13 17 34 30
46 30 11 0 18 3 14 6 -6 7 17 34 28 34 4 0 24 14 45 30 21 17 41 30 44 30 3 0
28 14 56 31 28 17 56 32 63 33 6 2 39 15 72 31 109 50 209 79 450 131 44 9
141 31 215 49 74 18 153 36 175 40 74 12 210 47 219 56 6 5 25 9 42 9 18 0 36
5 39 10 3 6 23 10 44 10 20 0 41 4 47 9 5 5 25 11 44 12 19 2 40 6 45 10 6 4
44 17 85 29 104 29 229 70 265 85 17 7 57 20 90 30 33 9 87 27 120 40 82 31
266 85 292 85 12 0 25 5 28 10 8 13 427 13 469 1 17 -6 101 -15 186 -21 157
-11 293 -4 405 21 139 31 223 53 248 66 15 8 32 11 37 8 6 -3 10 -1 10 4 0 6
9 11 19 11 15 0 19 -6 17 -27z m-2586 -19 c0 -18 -16 -26 -122 -59 -68 -20
-127 -41 -132 -46 -6 -5 -22 -9 -37 -9 -15 0 -31 -4 -34 -10 -3 -5 -16 -10
-28 -10 -13 0 -65 -13 -117 -29 -52 -15 -138 -38 -190 -50 -145 -33 -170 -39
-240 -57 -36 -9 -78 -18 -95 -21 -240 -37 -254 -41 -342 -100 -45 -31 -88 -62
-94 -70 -6 -7 -18 -13 -25 -13 -8 0 -14 -3 -14 -8 0 -4 -23 -25 -51 -47 -130
-102 -281 -304 -400 -535 -30 -58 -57 -107 -60 -110 -3 -3 -14 -30 -25 -60
-10 -30 -21 -57 -25 -60 -11 -10 -90 -219 -133 -355 -94 -294 -93 -292 -131
-555 -17 -120 -19 -409 -3 -500 4 -25 17 -97 28 -160 10 -63 29 -162 40 -220
12 -58 23 -116 25 -130 9 -67 25 -273 25 -332 0 -60 -2 -68 -19 -68 -31 0 -38
21 -40 115 -1 49 -9 146 -18 215 -9 69 -17 144 -18 167 -1 24 -7 55 -13 70
-18 47 -56 265 -73 418 -22 198 10 529 75 765 9 30 27 97 41 149 13 51 28 99
33 105 4 6 18 45 31 86 12 41 27 83 32 92 5 10 9 24 9 33 0 8 9 31 19 52 11
21 33 70 50 108 17 39 38 84 47 100 9 17 35 66 58 110 76 143 160 273 250 382
89 110 282 273 301 255 4 -4 5 -2 3 5 -2 6 6 18 17 26 18 14 2 15 -141 10
-115 -4 -163 -3 -168 6 -4 6 -34 11 -70 11 -34 0 -66 3 -70 7 -3 4 -17 8 -29
10 -12 2 -29 11 -37 19 -13 14 -13 17 4 29 12 9 25 11 35 6 59 -31 326 -39
551 -16 229 23 260 27 260 35 0 5 17 10 38 13 154 23 197 32 242 47 14 5 43
11 65 14 22 3 56 9 75 15 19 5 87 24 150 41 181 49 372 107 410 124 48 21 80
17 80 -10z m2647 -130 c-3 -3 -2 -16 3 -28 9 -24 -5 -60 -21 -51 -5 3 -6 0 -3
-8 3 -8 -1 -20 -8 -26 -114 -96 -217 -154 -293 -166 -22 -4 -49 -10 -60 -15
-11 -5 -87 -17 -170 -25 -252 -27 -308 -34 -352 -45 -24 -5 -60 -14 -80 -18
-51 -12 -211 -61 -248 -77 -40 -18 -145 -56 -170 -62 -11 -2 -29 -8 -40 -13
-11 -4 -38 -15 -60 -23 -22 -8 -62 -25 -90 -38 -27 -12 -56 -23 -64 -25 -7 -1
-18 -7 -24 -13 -6 -6 -18 -11 -27 -11 -9 0 -35 -9 -58 -20 -22 -11 -45 -20
-50 -20 -5 0 -22 -6 -38 -14 -50 -24 -96 -44 -189 -82 -49 -20 -101 -42 -115
-49 -42 -22 -110 -45 -110 -37 0 4 -4 2 -8 -4 -10 -15 -92 -53 -122 -56 -14
-2 -27 -5 -30 -8 -12 -13 -78 -47 -117 -59 -24 -8 -43 -17 -43 -22 0 -4 -12
-10 -27 -13 -42 -10 -183 -78 -183 -88 0 -4 -9 -8 -19 -8 -11 0 -22 -4 -25 -9
-3 -5 -36 -23 -73 -41 -77 -37 -193 -110 -193 -122 0 -4 -9 -8 -20 -8 -11 0
-20 -4 -20 -8 0 -5 -10 -13 -22 -19 -22 -10 -47 -29 -168 -131 -70 -60 -228
-216 -266 -264 -23 -30 -34 -37 -52 -32 -38 11 -25 41 55 126 43 46 83 88 90
95 6 7 14 13 17 13 2 0 28 22 56 50 28 27 79 71 113 97 34 25 76 58 93 72 61
51 74 61 78 61 2 0 43 23 92 52 201 117 333 182 589 288 55 23 104 46 109 51
6 5 18 9 28 9 10 0 26 5 36 10 34 20 182 79 182 73 0 -3 8 1 18 10 9 8 29 19
45 22 15 4 27 11 27 16 0 5 10 9 23 9 13 0 27 4 33 9 12 12 155 71 171 71 7 0
13 5 13 10 0 6 7 10 16 10 9 0 33 8 53 19 55 28 82 39 131 52 25 7 50 16 55
20 6 4 59 23 120 44 60 20 122 43 137 51 15 8 36 14 48 14 11 0 20 5 20 10 0
6 14 10 30 10 17 0 30 5 30 10 0 6 14 10 31 10 17 0 39 5 50 11 48 25 344 77
509 89 63 5 148 16 189 25 74 17 191 70 191 86 0 5 6 9 14 9 15 0 142 120 129
120 -5 0 1 7 11 15 20 15 35 21 23 9z m243 -174 c0 -9 -4 -20 -8 -25 -5 -6
-19 -44 -33 -85 -28 -88 -154 -347 -180 -370 -3 -3 -16 -23 -29 -45 -22 -37
-118 -173 -130 -185 -3 -3 -17 -21 -32 -42 -15 -20 -44 -53 -64 -74 -19 -21
-61 -67 -92 -103 -53 -59 -76 -82 -202 -201 -93 -87 -281 -239 -297 -240 -6 0
-13 -4 -15 -8 -4 -12 -125 -92 -137 -92 -6 0 -11 -3 -11 -8 0 -4 -15 -13 -32
-21 -18 -8 -35 -17 -38 -20 -10 -11 -204 -111 -277 -142 -18 -8 -33 -17 -33
-21 0 -5 -6 -8 -14 -8 -8 0 -34 -10 -58 -21 -23 -12 -52 -25 -63 -29 -11 -5
-40 -17 -65 -28 -25 -11 -70 -30 -100 -42 -30 -12 -71 -30 -90 -40 -19 -10
-52 -23 -72 -30 -21 -6 -38 -16 -38 -21 0 -5 -6 -9 -13 -9 -8 0 -27 -6 -43
-14 -16 -8 -47 -22 -69 -32 -22 -10 -62 -32 -90 -49 -156 -99 -195 -124 -254
-168 -173 -126 -399 -340 -467 -445 -9 -14 -21 -31 -26 -37 -101 -125 -238
-462 -258 -635 -10 -82 -17 -100 -42 -100 -18 0 -19 5 -13 73 7 78 20 150 34
182 4 11 25 74 46 140 40 127 74 197 163 335 91 142 150 210 347 398 8 6 16
12 19 12 5 0 14 7 66 50 9 8 52 40 94 70 43 30 97 69 121 87 70 51 334 190
425 223 25 9 63 25 85 35 22 9 58 25 80 35 161 72 190 86 193 93 2 4 10 7 18
7 8 0 22 4 32 10 9 5 44 22 77 38 33 16 69 33 80 39 11 6 58 30 105 54 102 51
203 112 250 150 19 16 39 29 45 29 6 0 17 9 25 20 8 11 19 20 25 20 33 0 356
289 454 406 14 16 54 63 90 105 119 139 143 169 160 198 9 16 37 61 62 99 26
38 50 79 54 91 3 11 11 21 16 21 5 0 9 5 9 11 0 14 70 163 80 169 4 3 13 24
19 47 23 83 51 166 63 180 9 11 14 11 29 -3 11 -10 19 -25 19 -34z m486 -192
c105 -122 244 -308 244 -327 0 -6 4 -11 8 -11 10 0 92 -134 92 -148 0 -5 6
-15 14 -22 19 -15 86 -152 86 -174 0 -9 4 -16 9 -16 11 0 59 -127 77 -205 7
-33 20 -87 28 -120 20 -80 38 -287 34 -404 -3 -98 -15 -122 -52 -108 -14 6
-16 27 -16 165 0 88 -5 183 -10 213 -6 29 -13 71 -15 93 -10 76 -77 293 -102
331 -7 11 -13 26 -13 34 0 17 -117 228 -142 255 -10 11 -18 23 -18 28 0 4 -20
34 -44 65 -24 32 -51 72 -60 90 -9 18 -22 36 -29 40 -7 4 -20 20 -29 34 -9 14
-43 54 -77 89 -34 35 -61 69 -61 76 0 47 43 59 76 22z m-1078 -128 c2 -19 -4
-28 -26 -38 -16 -7 -49 -25 -73 -41 -24 -15 -89 -57 -144 -92 -55 -35 -104
-67 -110 -71 -5 -5 -28 -22 -50 -39 -22 -17 -55 -43 -74 -57 -45 -35 -202
-172 -271 -236 -30 -28 -75 -67 -100 -86 -24 -19 -54 -44 -65 -55 -12 -11 -50
-45 -85 -75 -35 -30 -79 -70 -98 -87 -18 -18 -36 -33 -38 -33 -3 0 -15 -9 -27
-21 -12 -11 -42 -35 -67 -52 -25 -17 -47 -34 -50 -37 -10 -13 -129 -90 -139
-90 -6 0 -11 -3 -11 -8 0 -4 -21 -19 -47 -32 -27 -14 -66 -37 -88 -51 -22 -14
-61 -36 -87 -48 -27 -13 -48 -27 -48 -32 0 -5 -9 -9 -20 -9 -11 0 -20 -4 -20
-10 0 -5 -5 -10 -12 -10 -6 0 -36 -12 -67 -26 -31 -15 -90 -42 -131 -61 -41
-19 -83 -38 -92 -43 -10 -6 -25 -10 -33 -10 -8 0 -15 -4 -15 -9 0 -5 -13 -11
-28 -14 -16 -3 -82 -31 -148 -62 -119 -55 -137 -64 -173 -87 -15 -9 -22 -8
-36 6 -32 32 -20 41 138 106 43 18 84 38 92 46 7 8 20 14 28 14 8 0 27 6 43
14 16 7 59 26 97 42 37 16 67 32 67 36 0 5 6 8 14 8 19 0 120 42 124 52 2 4
10 8 18 8 14 0 54 19 64 31 3 3 21 11 40 19 19 7 49 24 67 37 17 12 35 23 38
23 12 0 198 112 219 132 11 10 26 18 33 18 7 0 13 5 13 10 0 6 6 10 13 10 13
0 183 133 261 205 6 6 56 49 111 97 55 47 117 101 137 120 20 18 58 51 83 73
26 22 56 49 68 60 12 11 58 49 102 85 44 36 93 77 109 92 17 15 41 33 55 40
15 7 33 21 42 30 9 10 19 18 23 18 3 0 47 27 97 60 50 33 93 60 97 60 4 1 39
23 77 50 76 54 98 59 103 20z m1034 -70 c16 -41 31 -91 34 -110 3 -19 10 -40
15 -46 9 -12 23 -85 41 -223 18 -133 -3 -398 -41 -526 -52 -174 -54 -180 -76
-180 -11 0 -23 -4 -26 -9 -15 -20 -19 36 -5 61 46 84 86 314 86 501 0 186 -22
314 -84 487 -36 100 -34 129 8 123 15 -2 28 -22 48 -78z m-2502 -400 c12 -8
12 -13 -2 -42 -42 -88 -356 -396 -578 -568 -25 -19 -47 -37 -50 -40 -3 -4 -27
-22 -55 -40 -27 -19 -51 -37 -53 -42 -2 -4 -8 -8 -14 -8 -5 0 -15 -6 -23 -12
-29 -28 -61 -52 -117 -88 -50 -33 -97 -69 -168 -130 -9 -8 -32 -26 -50 -40
-82 -63 -273 -272 -309 -339 -8 -14 -17 -28 -20 -31 -14 -12 -61 -79 -61 -88
0 -6 -4 -12 -8 -14 -11 -4 -92 -148 -135 -240 -68 -143 -99 -241 -136 -423
-41 -202 -48 -366 -26 -545 25 -193 31 -228 50 -290 31 -101 31 -100 -2 -100
-26 0 -30 5 -47 61 -10 34 -19 75 -20 93 -2 17 -8 54 -14 81 -33 145 -46 526
-21 605 6 19 15 55 19 80 27 149 81 324 127 413 8 15 12 27 8 27 -3 0 6 18 20
40 14 22 25 43 25 46 0 16 53 114 62 114 5 0 6 5 3 10 -3 6 -2 10 3 10 5 0 12
8 16 18 6 19 25 50 43 69 6 7 15 22 18 33 3 11 11 20 16 20 5 0 9 5 9 11 0 13
114 152 199 244 77 82 221 208 322 280 46 33 140 102 209 153 69 51 136 100
149 110 106 76 479 434 550 527 36 48 38 50 61 35z m2158 -23 c2 -10 0 -26 -4
-35 -4 -9 -8 -21 -8 -27 -1 -5 -9 -27 -19 -49 -9 -21 -17 -42 -17 -47 0 -12
-85 -154 -126 -212 -19 -26 -34 -50 -34 -53 0 -9 -28 -34 -39 -34 -6 0 -8 -6
-6 -13 6 -14 -183 -210 -275 -284 -79 -64 -218 -163 -229 -163 -4 0 -16 -9
-26 -20 -10 -11 -24 -20 -32 -20 -7 0 -13 -4 -13 -10 0 -5 -4 -10 -10 -10 -5
0 -40 -19 -77 -41 -71 -43 -275 -149 -288 -149 -4 0 -21 -7 -38 -15 -18 -8
-65 -26 -105 -40 -66 -22 -76 -23 -89 -9 -20 20 -10 42 24 50 72 15 163 49
251 92 113 56 246 132 250 144 2 4 10 8 18 8 8 0 14 5 14 10 0 6 7 10 15 10 8
0 15 5 15 10 0 6 5 10 10 10 10 0 190 116 200 130 3 3 21 17 40 30 43 30 95
77 170 155 113 116 160 168 160 176 0 4 11 16 25 27 14 11 25 24 25 30 0 8 61
116 109 192 8 14 17 35 19 48 1 13 14 48 28 78 18 39 30 54 42 52 9 -2 18 -11
20 -21z m-3972 -464 c-19 -18 -39 -33 -45 -33 -6 0 -11 -4 -11 -10 0 -5 -5
-10 -11 -10 -9 0 -106 -75 -193 -150 -210 -180 -428 -476 -554 -750 -105 -227
-159 -408 -193 -635 -10 -71 -23 -146 -27 -165 -12 -49 -6 -504 6 -527 9 -17
32 -112 52 -218 4 -22 19 -76 33 -120 14 -44 35 -114 48 -155 13 -41 26 -77
30 -80 4 -3 9 -16 10 -30 5 -34 -27 -40 -41 -8 -5 13 -14 30 -19 38 -23 38
-62 154 -107 320 -30 107 -33 126 -38 175 -2 28 -12 104 -21 170 -14 103 -15
146 -5 315 12 207 14 231 29 325 18 110 37 188 62 250 4 11 10 31 13 45 7 39
55 172 71 202 8 14 15 33 15 42 0 9 5 16 10 16 6 0 10 11 10 23 0 25 102 233
139 286 12 16 21 34 21 40 0 6 4 11 9 11 5 0 22 21 37 48 15 26 30 49 33 52 4
3 22 25 41 50 44 57 85 106 160 193 56 64 236 215 353 294 84 57 93 61 105 45
11 -14 8 -21 -22 -49z m4162 4 c8 -9 10 -71 7 -188 -9 -347 -52 -628 -96 -629
-19 0 -16 87 6 209 21 109 26 178 31 370 5 226 8 250 35 251 4 0 11 -6 17 -13z
m455 -189 c17 -14 32 -145 43 -393 6 -122 -12 -355 -41 -540 -16 -97 -17 -102
-65 -305 -18 -74 -35 -148 -37 -165 -3 -16 -10 -34 -17 -40 -6 -5 -12 -23 -14
-40 -6 -56 -129 -395 -143 -395 -5 0 -9 -7 -9 -15 0 -19 -61 -149 -72 -153 -4
-2 -8 -9 -8 -15 0 -15 -61 -140 -77 -155 -7 -7 -13 -18 -13 -23 0 -5 -9 -9
-19 -9 -36 0 -33 34 9 110 22 40 58 112 81 159 22 47 44 93 49 103 5 9 30 69
55 135 25 65 50 128 55 141 6 13 10 33 10 45 0 13 4 27 8 32 5 6 19 48 31 95
13 47 31 114 42 150 10 36 25 94 33 130 8 36 21 94 30 130 14 62 28 155 41
283 12 119 7 451 -9 590 -9 75 -14 142 -11 147 8 14 28 12 48 -2z m-817 -220
c4 -6 2 -14 -4 -16 -7 -2 -10 -8 -6 -13 5 -8 -23 -67 -37 -79 -4 -3 -21 -30
-40 -60 -18 -30 -41 -64 -51 -74 -10 -11 -18 -25 -18 -31 0 -7 -11 -24 -25
-39 -13 -14 -22 -26 -19 -26 3 0 -11 -20 -30 -44 -20 -23 -36 -46 -36 -50 0
-4 -13 -21 -30 -39 -16 -18 -30 -35 -30 -39 0 -7 -31 -45 -133 -162 -63 -72
-70 -79 -172 -166 -44 -37 -96 -77 -116 -88 -75 -42 -84 -47 -89 -52 -16 -16
-100 -51 -109 -45 -6 3 -14 0 -17 -8 -2 -7 -10 -14 -17 -14 -7 0 -46 -10 -87
-21 -41 -11 -111 -26 -155 -32 -44 -6 -94 -16 -111 -21 -17 -5 -54 -9 -83 -9
-149 0 -506 -104 -694 -202 -20 -11 -70 -36 -110 -56 -39 -20 -78 -43 -85 -49
-18 -17 -26 -16 -46 5 -15 18 -15 20 1 34 28 24 151 92 223 124 36 15 67 31
70 34 3 3 28 13 55 22 28 9 104 35 170 58 66 23 129 43 140 45 11 2 54 9 95
15 41 6 100 16 130 21 30 5 115 18 188 29 140 21 243 44 277 63 11 6 25 10 31
9 6 -1 17 5 24 13 7 8 21 15 31 15 11 0 19 5 19 10 0 6 8 10 18 10 10 0 36 13
58 30 21 16 44 30 50 30 5 0 19 8 30 18 10 9 45 37 77 61 93 71 307 313 307
349 0 6 4 12 9 12 5 0 28 26 52 58 24 31 50 63 57 71 8 8 25 33 39 55 14 23
47 73 72 111 26 39 55 87 65 108 17 37 47 50 62 25z m-452 -193 c8 -22 -60
-83 -154 -139 -44 -26 -85 -53 -92 -60 -7 -6 -38 -27 -68 -45 -30 -17 -77 -46
-105 -63 -27 -17 -74 -44 -102 -60 -29 -15 -77 -41 -105 -57 -29 -16 -73 -39
-98 -52 -25 -13 -46 -27 -48 -31 -2 -5 -12 -8 -23 -8 -10 0 -19 -4 -19 -10 0
-5 -5 -10 -10 -10 -9 0 -195 -84 -240 -109 -8 -4 -24 -13 -35 -19 -11 -6 -35
-17 -52 -24 -18 -7 -33 -16 -33 -19 0 -4 -15 -9 -32 -12 -18 -3 -78 -26 -133
-52 -55 -26 -122 -57 -150 -70 -381 -175 -550 -266 -660 -355 -75 -61 -196
-195 -239 -263 -55 -88 -115 -231 -142 -337 -25 -99 -26 -333 -1 -433 10 -38
15 -73 11 -78 -3 -5 -1 -9 4 -9 9 0 42 -96 42 -122 0 -13 -29 -34 -35 -26 -8
13 -36 82 -48 118 -33 103 -42 177 -41 350 0 163 2 181 28 260 29 91 53 155
67 182 5 10 9 23 9 28 0 10 42 74 122 185 71 98 189 200 333 288 89 54 348
183 520 259 50 22 118 53 151 69 34 16 64 29 68 29 4 0 53 22 109 48 116 55
163 75 173 72 4 -1 10 2 13 7 3 5 39 24 79 43 39 18 72 37 72 42 0 4 8 8 19 8
10 0 30 9 44 20 14 11 32 20 41 20 9 0 16 5 16 10 0 6 9 10 19 10 11 0 21 3
23 8 2 4 35 22 73 41 39 19 86 47 106 63 20 15 44 28 53 28 9 0 16 5 16 10 0
6 5 10 10 10 12 0 73 41 78 53 2 4 8 7 13 7 11 0 173 102 177 112 2 5 10 8 18
8 8 0 14 3 14 8 0 4 18 18 40 32 22 14 40 28 40 32 0 3 10 9 23 11 12 2 25 5
28 6 4 0 9 -6 13 -14z m529 -184 c-2 -6 1 -11 6 -11 5 0 12 -48 15 -107 13
-223 28 -380 47 -487 11 -61 29 -162 40 -225 11 -63 23 -119 26 -124 15 -24
52 -333 53 -433 0 -126 -10 -265 -19 -260 -3 2 -6 -27 -7 -65 -1 -38 -6 -75
-12 -82 -7 -8 -9 -17 -5 -21 4 -3 -4 -5 -18 -3 -13 2 -25 11 -27 19 -2 9 4 79
12 156 9 78 16 190 16 250 0 108 -35 393 -64 522 -8 36 -22 106 -31 155 -8 50
-20 115 -25 145 -29 166 -55 542 -40 571 12 21 37 21 33 0z m328 -98 c1 -7 2
-16 3 -20 3 -9 14 -206 21 -358 2 -55 7 -145 11 -201 7 -108 0 -130 -34 -96
-18 18 -19 24 -48 574 -2 47 -1 93 2 101 7 19 43 18 45 0z m-4283 -5 c13 -16
-6 -65 -37 -92 -11 -11 -21 -23 -21 -27 0 -4 -22 -41 -49 -81 -26 -40 -58 -93
-70 -116 -12 -24 -31 -52 -41 -62 -11 -11 -20 -22 -19 -25 2 -17 -15 -65 -27
-76 -8 -6 -14 -18 -14 -25 0 -8 -9 -33 -19 -57 -24 -51 -51 -129 -62 -177 -4
-19 -17 -69 -28 -110 -28 -100 -38 -323 -22 -485 7 -66 16 -131 20 -145 5 -14
14 -50 21 -80 18 -82 99 -317 131 -382 31 -60 59 -135 59 -155 0 -7 -8 -13
-18 -13 -13 0 -25 14 -37 43 -10 23 -29 67 -43 97 -44 99 -50 115 -58 140 -4
14 -6 27 -5 29 2 2 -1 7 -6 10 -17 13 -81 210 -94 291 -29 177 -34 539 -9 625
5 17 18 64 30 105 75 264 160 455 265 601 19 27 35 51 35 54 0 9 71 110 83
117 17 11 23 10 35 -4z m1784 -6 c-7 -2 -9 -9 -5 -15 4 -6 0 -8 -10 -4 -10 4
-14 2 -11 -6 3 -8 -20 -22 -62 -37 -36 -14 -74 -33 -84 -42 -11 -10 -24 -18
-31 -18 -15 0 -183 -100 -187 -112 -2 -4 -8 -8 -13 -8 -5 0 -17 -6 -26 -14
-59 -47 -160 -132 -168 -142 -27 -32 -123 -141 -143 -162 -22 -23 -25 -23 -40
-9 -14 15 -14 20 -1 44 17 33 281 303 296 303 6 0 16 7 23 15 21 25 222 136
360 198 37 17 89 26 105 18 5 -3 4 -6 -3 -9z m1864 -67 c7 -22 14 -48 14 -59
0 -40 59 -264 96 -369 20 -54 18 -87 -5 -87 -21 0 -27 12 -70 150 -27 85 -80
314 -85 365 -1 22 14 46 28 42 4 -2 14 -21 22 -42z m1288 -440 c4 -13 -9 -27
-103 -108 -42 -37 -126 -166 -148 -228 -10 -27 -21 -49 -26 -49 -4 0 -6 -4 -2
-10 3 -5 1 -17 -5 -27 -5 -10 -21 -49 -34 -88 -95 -272 -132 -365 -146 -365
-4 0 -7 -6 -7 -14 0 -14 -24 -73 -47 -116 -8 -14 -33 -62 -57 -107 -24 -46
-47 -83 -51 -83 -5 0 -8 -5 -8 -10 0 -11 -79 -141 -91 -150 -3 -3 -9 -17 -12
-32 -4 -15 -13 -33 -20 -40 -12 -13 -27 -51 -97 -253 -50 -144 -71 -211 -81
-260 -13 -67 -26 -119 -34 -137 -8 -21 -41 -24 -47 -6 -8 24 64 287 137 496
24 72 105 243 146 312 12 19 32 55 46 80 13 25 33 59 44 75 10 17 24 41 29 55
6 13 15 27 19 30 12 8 101 187 101 204 0 8 6 21 13 28 15 16 36 71 46 119 4
19 15 50 24 69 9 18 17 39 17 47 0 7 5 13 11 13 5 0 8 4 5 8 -8 13 41 147 53
145 6 -2 8 4 5 12 -9 22 18 89 79 196 48 85 76 116 146 169 63 47 84 52 95 25z
m-5544 -58 c0 -6 -31 -101 -40 -122 -4 -11 -13 -47 -20 -80 -6 -33 -18 -78
-25 -100 -24 -76 -38 -267 -32 -439 3 -90 10 -173 15 -183 6 -10 17 -61 26
-113 9 -52 21 -96 26 -98 6 -2 10 -10 10 -17 0 -8 6 -29 14 -47 15 -35 29 -70
30 -78 1 -3 18 -37 39 -77 20 -39 37 -78 37 -87 0 -9 5 -16 11 -16 5 0 15 -13
20 -30 6 -16 15 -30 19 -30 5 0 12 -9 15 -20 4 -11 17 -32 31 -45 13 -13 24
-29 24 -35 0 -6 5 -8 11 -4 8 4 9 -1 4 -17 -5 -18 -4 -20 4 -9 10 14 17 9 58
-45 13 -17 11 -43 -3 -49 -9 -4 -14 2 -15 17 0 12 -3 16 -6 9 -5 -14 -83 57
-83 77 0 5 -9 13 -20 16 -11 3 -20 15 -20 26 0 10 -4 19 -9 19 -5 0 -20 17
-32 38 -13 20 -29 43 -36 50 -7 8 -11 18 -8 23 4 5 -1 9 -9 9 -9 0 -16 8 -16
19 0 11 -5 23 -10 26 -6 4 -10 12 -9 18 3 26 -2 37 -16 37 -8 0 -15 7 -15 15
0 8 -4 15 -10 15 -12 0 -12 -56 1 -130 5 -30 11 -66 13 -80 6 -42 28 -123 42
-157 8 -17 14 -43 14 -57 0 -14 4 -26 9 -26 5 0 11 -13 14 -29 3 -16 13 -36
22 -44 8 -9 15 -22 15 -29 0 -7 14 -37 30 -67 34 -62 39 -94 13 -89 -10 2 -17
9 -16 15 1 6 -9 22 -22 35 -14 13 -25 29 -25 36 0 6 -4 12 -10 12 -5 0 -10 7
-10 16 0 9 -9 27 -20 41 -11 14 -20 34 -20 44 0 10 -4 20 -9 23 -4 3 -11 20
-15 37 -3 17 -12 45 -19 62 -33 78 -83 340 -73 387 3 16 1 30 -4 32 -9 3 -27
146 -35 288 -3 52 -10 113 -15 135 -13 53 -12 368 1 425 6 25 14 75 19 111 8
65 22 121 63 254 11 39 20 73 19 78 -1 4 12 7 28 7 17 0 30 -1 30 -3z m5511
-197 c5 0 9 -9 9 -20 0 -11 5 -20 10 -20 6 0 10 -10 10 -23 0 -13 4 -27 8 -32
16 -19 92 -224 102 -275 20 -108 11 -183 -33 -280 -14 -30 -33 -51 -40 -44 -2
3 -7 -6 -11 -19 -3 -13 -17 -29 -31 -37 -14 -7 -25 -17 -25 -22 0 -4 -4 -8
-10 -8 -5 0 -20 -10 -33 -22 -34 -33 -54 -48 -134 -102 -64 -43 -75 -47 -90
-35 -14 12 -16 12 -8 0 5 -10 4 -12 -3 -7 -19 11 -14 37 8 43 11 3 20 9 20 14
0 5 6 9 13 9 7 0 18 9 25 20 7 11 17 20 23 20 6 0 45 29 88 64 167 141 197
189 194 316 -2 92 -16 140 -85 289 -21 46 -40 92 -41 102 -2 10 -6 21 -9 24
-3 3 -3 17 0 31 3 17 9 23 19 20 8 -3 19 -6 24 -6z m-4516 -370 c5 -9 -3 -81
-26 -225 -5 -33 -14 -251 -19 -485 -10 -434 -23 -582 -64 -750 -9 -36 -31
-134 -48 -217 -26 -129 -33 -153 -49 -153 -23 0 -32 29 -24 83 14 90 -19 323
-72 510 -14 49 -29 112 -33 140 -8 49 -15 80 -38 169 -10 40 -1 51 36 41 16
-4 22 -19 32 -81 17 -111 36 -199 55 -262 9 -30 19 -73 22 -95 3 -22 9 -44 14
-50 5 -5 9 -19 9 -31 0 -27 20 -84 29 -84 13 0 50 180 62 300 7 64 13 289 14
510 1 280 4 401 13 416 6 12 9 24 6 27 -3 3 4 50 15 104 12 54 24 108 27 121
4 22 28 30 39 12z m1207 -442 c-6 -57 -14 -145 -18 -195 -3 -51 -9 -93 -13
-93 -4 0 -7 -28 -7 -62 1 -35 -9 -153 -21 -263 -12 -110 -27 -285 -33 -390
-19 -309 -24 -358 -37 -362 -6 -2 -19 6 -27 19 -16 24 -14 58 14 343 6 55 10
134 10 176 0 41 4 100 9 130 5 30 12 88 15 129 6 80 15 182 45 489 19 198 28
228 60 196 12 -11 12 -31 3 -117z m-1058 50 c3 -13 7 -55 10 -94 3 -39 17
-110 31 -158 14 -47 25 -93 25 -102 0 -8 7 -22 15 -30 8 -9 18 -27 22 -42 3
-15 12 -33 20 -40 7 -7 16 -25 20 -40 3 -15 13 -34 22 -42 9 -8 22 -26 29 -40
16 -34 33 -60 55 -82 15 -16 22 -38 18 -61 -1 -5 3 -6 8 -3 5 4 31 -21 57 -55
37 -48 44 -63 33 -70 -12 -7 -12 -9 0 -9 8 0 11 -3 8 -6 -10 -11 -96 59 -97
79 0 9 -6 17 -13 17 -8 0 -19 11 -25 24 -6 14 -20 35 -31 48 -37 43 -71 93
-89 130 -26 58 -48 50 -57 -19 -4 -32 -10 -62 -15 -68 -4 -5 -15 -37 -25 -70
-18 -60 -35 -102 -82 -206 -22 -48 -28 -55 -49 -51 l-23 4 43 87 c23 47 50
115 60 151 9 36 22 79 27 96 5 17 9 46 10 65 0 19 8 66 18 104 l17 70 -34 95
c-20 58 -31 103 -27 118 3 13 2 21 -3 18 -9 -5 -22 93 -22 167 0 30 4 37 20
37 12 0 21 -8 24 -22z m-658 -12 c9 -10 14 -37 14 -78 0 -35 8 -110 16 -168 9
-58 20 -134 25 -169 5 -36 13 -67 17 -70 23 -15 37 -460 17 -536 -14 -56 -45
-137 -55 -145 -11 -9 -50 -90 -50 -105 0 -8 -4 -15 -10 -15 -5 0 -34 -24 -63
-52 -30 -29 -72 -61 -93 -72 -21 -10 -47 -22 -56 -27 -30 -15 -78 -11 -78 7 0
20 24 44 44 44 8 0 18 5 21 10 3 6 17 10 31 10 13 0 24 5 24 10 0 6 7 10 15
10 8 0 15 5 15 10 0 6 7 10 15 10 8 0 15 5 15 10 0 6 7 10 15 10 8 0 15 3 15
8 0 4 11 19 25 34 38 41 63 85 99 173 17 41 36 207 30 260 -14 131 -24 242
-29 310 -4 44 -10 96 -15 115 -5 19 -11 55 -14 80 -25 223 -31 292 -27 328 1
16 19 15 37 -2z m-148 -788 c7 -10 20 -18 28 -18 11 0 13 -6 9 -20 -5 -17 -2
-20 25 -20 17 0 29 -4 26 -9 -4 -5 -2 -11 2 -13 5 -1 12 -15 16 -30 5 -21 3
-28 -9 -28 -8 0 -15 5 -15 10 0 6 -5 10 -10 10 -15 0 -60 47 -53 54 4 3 1 6
-5 6 -20 0 -26 3 -50 27 -18 18 -21 27 -13 42 6 10 7 22 3 27 -4 5 2 2 13 -6
11 -8 26 -23 33 -32z m1477 -527 c0 -14 -12 -37 -27 -52 -30 -30 -38 -79 -14
-79 8 0 18 -9 21 -20 3 -11 13 -20 22 -20 9 0 23 -8 32 -18 28 -31 98 -82 113
-82 7 0 20 -9 28 -20 8 -11 19 -20 25 -20 6 0 17 -9 25 -20 8 -11 20 -20 26
-20 7 0 26 -13 44 -30 29 -28 70 -41 70 -22 0 4 15 14 33 21 17 8 43 25 57 38
14 13 33 26 43 29 9 3 17 10 17 15 0 5 9 9 20 9 11 0 20 5 20 10 0 6 6 10 13
10 6 1 28 14 47 30 34 30 73 39 85 20 3 -5 1 -10 -5 -10 -6 0 -8 -4 -5 -10 3
-5 -1 -10 -9 -10 -9 0 -16 -4 -16 -10 0 -5 -6 -10 -13 -10 -7 0 -19 -9 -27
-20 -8 -11 -20 -20 -27 -20 -7 0 -13 -4 -13 -10 0 -5 -7 -10 -15 -10 -8 0 -15
-4 -15 -8 0 -5 -12 -15 -27 -23 -16 -8 -37 -22 -47 -31 -11 -10 -26 -18 -33
-18 -7 0 -13 -3 -13 -7 0 -14 -53 -33 -90 -33 -24 0 -40 6 -50 20 -8 11 -21
20 -29 20 -7 0 -21 8 -30 18 -9 9 -28 23 -43 31 -16 8 -28 18 -28 23 0 4 -6 8
-13 8 -7 0 -22 8 -33 18 -10 9 -31 23 -46 31 -16 8 -28 18 -28 23 0 4 -6 8
-12 8 -17 0 -118 92 -118 108 0 6 -4 12 -10 12 -5 0 -10 18 -10 40 0 33 7 48
38 80 41 43 67 48 67 11z m773 -63 c2 -4 11 -8 21 -8 9 0 27 -9 39 -20 12 -11
26 -20 32 -20 6 0 10 -28 10 -70 0 -58 -3 -72 -22 -90 -12 -11 -28 -20 -36
-20 -7 0 -20 -7 -28 -15 -18 -17 -70 -20 -79 -4 -9 14 45 59 71 59 30 0 58 61
42 95 -6 14 -17 25 -25 25 -7 0 -13 5 -13 10 0 6 -9 10 -19 10 -11 0 -21 4
-23 10 -2 6 -28 5 -69 -2 -70 -12 -96 -8 -105 17 -10 24 2 30 79 36 76 6 120
1 125 -13z m-65 -782 c15 -6 27 -14 27 -18 0 -5 9 -8 20 -8 11 0 20 -4 20 -10
0 -5 7 -10 15 -10 8 0 15 -4 15 -10 0 -5 9 -10 20 -10 11 0 20 -4 20 -10 0 -5
7 -10 15 -10 8 0 15 -4 15 -10 0 -5 8 -10 18 -10 10 0 28 -9 40 -20 12 -11 31
-20 42 -20 12 0 18 -4 15 -10 -3 -6 5 -10 19 -10 14 0 28 -4 31 -10 3 -5 16
-10 29 -10 12 0 26 -3 30 -7 12 -12 80 -33 108 -33 15 0 30 -4 33 -10 3 -5 35
-10 70 -10 81 0 93 -5 87 -36 -4 -21 -9 -24 -53 -24 -50 0 -207 36 -223 51 -6
5 -18 9 -28 9 -10 0 -26 4 -36 9 -9 5 -30 15 -47 22 -16 7 -38 20 -49 29 -10
8 -20 14 -22 13 -7 -5 -84 32 -84 39 0 5 -9 8 -20 8 -11 0 -20 5 -20 10 0 6
-5 10 -11 10 -6 0 -23 8 -37 19 -15 10 -47 26 -72 35 -38 14 -55 15 -105 6
-104 -19 -115 -22 -115 -31 0 -12 -125 -12 -148 0 -21 11 -106 31 -130 31 -22
0 -72 -22 -72 -32 0 -5 -11 -8 -25 -8 -16 0 -25 -6 -25 -15 0 -8 -4 -15 -10
-15 -5 0 -20 -11 -34 -25 -14 -14 -29 -25 -33 -25 -5 0 -15 -9 -23 -20 -8 -11
-19 -20 -24 -20 -5 0 -16 -8 -25 -18 -9 -11 -28 -22 -43 -25 -15 -4 -33 -14
-42 -22 -8 -8 -19 -15 -25 -15 -6 0 -11 -4 -11 -10 0 -5 -11 -10 -24 -10 -13
0 -26 -6 -29 -12 -3 -10 -9 -9 -22 3 -14 14 -15 21 -5 38 6 12 15 19 21 16 5
-4 9 -1 9 4 0 6 6 11 13 11 20 0 73 28 87 45 7 8 20 15 30 15 10 0 20 6 23 13
3 7 24 26 48 42 24 17 46 33 47 38 2 4 10 7 18 7 8 0 14 5 14 10 0 6 10 10 22
10 12 0 19 3 15 6 -8 9 18 34 35 34 8 0 19 5 25 11 15 15 170 14 187 0 25 -21
111 -25 146 -7 18 9 40 16 50 16 9 0 20 4 26 9 20 21 114 19 167 -3z m377
-319 c14 -6 26 -12 27 -12 10 -4 -21 -75 -32 -75 -8 0 -14 -4 -12 -9 1 -5 -5
-19 -13 -32 -22 -32 -130 -140 -169 -169 -19 -14 -39 -29 -45 -35 -6 -5 -23
-16 -38 -24 -16 -8 -28 -18 -28 -23 0 -4 -9 -8 -20 -8 -11 0 -20 5 -20 10 0 6
-4 10 -10 10 -5 0 -10 -6 -10 -14 0 -7 -10 -16 -22 -20 -39 -10 -376 -7 -383
4 -3 6 -24 10 -45 10 -35 0 -86 15 -100 30 -3 3 -17 11 -32 19 -46 24 -69 51
-63 72 4 11 2 19 -4 19 -6 0 -11 -5 -11 -10 0 -20 -77 73 -104 125 -14 29 -29
74 -32 100 l-5 47 73 -6 c104 -8 158 -17 158 -26 0 -4 19 -11 43 -14 23 -4 65
-12 92 -17 103 -18 195 -22 277 -10 139 20 212 33 233 41 93 37 234 45 295 17z"/>
<path d="M3403 1963 c-24 -2 -43 -8 -43 -13 0 -13 34 -70 43 -70 4 0 7 -7 7
-15 0 -9 5 -21 10 -28 6 -7 24 -28 40 -47 16 -19 30 -38 30 -42 0 -5 8 -8 19
-8 10 0 21 -8 23 -18 3 -10 23 -24 49 -32 24 -7 50 -18 57 -23 18 -14 461 -15
470 -1 4 5 23 18 43 27 20 9 42 23 49 32 7 8 18 15 24 15 6 0 28 17 48 38 114
115 148 153 148 166 0 29 -193 19 -265 -14 -23 -10 -75 -19 -157 -27 -32 -2
-58 -9 -58 -14 0 -5 -26 -9 -57 -9 -79 0 -263 23 -263 32 0 4 -18 8 -39 8 -22
0 -43 5 -46 10 -3 6 -17 10 -30 10 -13 0 -30 7 -39 15 -8 8 -16 14 -18 13 -2
-1 -22 -3 -45 -5z"/>
</g>
</svg>
